/* XPM */
static char *_534725665202[] = {
/* columns rows colors chars-per-pixel */
"64 64 239 2 ",
"   c #000200",
".  c #070C04",
"X  c #0A1604",
"o  c #181B17",
"O  c #12150E",
"+  c #16260D",
"@  c #192716",
"#  c #0D3411",
"$  c #1A3517",
"%  c #122D0E",
"&  c #232618",
"*  c #3A2D15",
"=  c #283816",
"-  c #343A16",
";  c #1F2D23",
":  c #292B27",
">  c #283828",
",  c #35392A",
"<  c #383B36",
"1  c #46371E",
"2  c #433C25",
"3  c #1C461B",
"4  c #1D5617",
"5  c #18520D",
"6  c #24481A",
"7  c #36491A",
"8  c #265C1A",
"9  c #335419",
"0  c #1C6317",
"q  c #276A12",
"w  c #3A6A1E",
"e  c #377516",
"r  c #337713",
"t  c #1E4E23",
"y  c #294523",
"u  c #284725",
"i  c #354827",
"p  c #2A5423",
"a  c #2A5926",
"s  c #385929",
"d  c #3C423B",
"f  c #3B4B3C",
"g  c #364738",
"h  c #375632",
"j  c #295132",
"k  c #2C6625",
"l  c #386728",
"z  c #357229",
"x  c #3D792A",
"c  c #387525",
"v  c #3A6834",
"b  c #3C7332",
"n  c #2F7226",
"m  c #4C5D1D",
"M  c #52591E",
"N  c #4B640F",
"B  c #4B6B18",
"V  c #586E1E",
"C  c #477D19",
"Z  c #5A7B1C",
"A  c #577519",
"S  c #51720E",
"D  c #454A21",
"F  c #495A26",
"G  c #565828",
"H  c #41453E",
"J  c #425335",
"K  c #50533F",
"L  c #655E24",
"P  c #44692C",
"I  c #576829",
"U  c #457C2D",
"Y  c #48772B",
"T  c #527D23",
"R  c #587728",
"E  c #416333",
"W  c #446D35",
"Q  c #496938",
"!  c #586836",
"~  c #437534",
"^  c #447C32",
"/  c #497636",
"(  c #557738",
")  c #66773A",
"_  c #6D6F2C",
"`  c #3B3B45",
"'  c #3E4C40",
"]  c #3D5443",
"[  c #474B45",
"{  c #4B534C",
"}  c #4A5744",
"|  c #51584B",
" . c #555D52",
".. c #5A5C55",
"X. c #4F5656",
"o. c #4D6546",
"O. c #57674A",
"+. c #5C7B44",
"@. c #5A6454",
"#. c #5A6858",
"$. c #5A7454",
"%. c #4C734E",
"&. c #677847",
"*. c #636D5D",
"=. c #656759",
"-. c #627A5E",
";. c #6E7142",
":. c #5D7A63",
">. c #656863",
",. c #637463",
"<. c #6C7D65",
"1. c #6C7469",
"2. c #6B7867",
"3. c #72756C",
"4. c #747C6D",
"5. c #757C66",
"6. c #767B73",
"7. c #875F18",
"8. c #88752C",
"9. c #817A40",
"0. c #86786D",
"q. c #388418",
"w. c #3B8828",
"e. c #48841A",
"r. c #58841D",
"t. c #4B8E14",
"y. c #63841D",
"u. c #468726",
"i. c #5B8623",
"p. c #499429",
"a. c #589729",
"s. c #588738",
"d. c #589535",
"f. c #4C8938",
"g. c #658A24",
"h. c #678C25",
"j. c #659527",
"k. c #719629",
"l. c #6C8D3C",
"z. c #7A8D3B",
"x. c #689937",
"c. c #739931",
"v. c #65AB3D",
"b. c #598A49",
"n. c #569346",
"m. c #638842",
"M. c #788947",
"N. c #6B9548",
"B. c #799747",
"V. c #668C57",
"C. c #748655",
"Z. c #6A9556",
"A. c #7B9C57",
"S. c #78A755",
"D. c #71AC49",
"F. c #598B65",
"G. c #6B8266",
"H. c #748B6D",
"J. c #76856C",
"K. c #779667",
"L. c #758573",
"P. c #7B8374",
"I. c #758B73",
"U. c #7B8777",
"Y. c #7B9678",
"T. c #8E8F39",
"R. c #AD9C3E",
"E. c #888B46",
"W. c #869947",
"Q. c #889A56",
"!. c #9B8F4A",
"~. c #AA9F4B",
"^. c #8AB54C",
"/. c #91A756",
"(. c #96BB5A",
"). c #8CA451",
"_. c #ACAE50",
"`. c #828C7D",
"'. c #82877A",
"]. c #85977A",
"[. c #8A926C",
"{. c #8CAB67",
"}. c #96AB68",
"|. c #91B073",
" X c #A7B26A",
".X c #D2BF60",
"XX c #B4C456",
"oX c #9BC372",
"OX c #B0CF6C",
"+X c #88C853",
"@X c #D0C551",
"#X c #CADD6E",
"$X c #E0DC6E",
"%X c #C8E977",
"&X c #E7EF6F",
"*X c #7B9681",
"=X c #868882",
"-X c #8E938B",
";X c #8A9983",
":X c #959C8A",
">X c #9A9F96",
",X c #90978F",
"<X c #87A987",
"1X c #96A98B",
"2X c #89AA91",
"3X c #9AA697",
"4X c #AAB58B",
"5X c #A6A999",
"6X c #A8B498",
"7X c #B6BD8F",
"8X c #A7A9A7",
"9X c #A6B6A6",
"0X c #B6BAA9",
"qX c #B9BCB8",
"wX c #B5C994",
"eX c #BDC5BB",
"rX c #AFC4B2",
"tX c #C5C8BB",
"yX c #CAD8BB",
"uX c #CDCBAE",
"iX c #D4E3BD",
"pX c #EDEABB",
"aX c #D3EB8C",
"sX c #BFC0C2",
"dX c #C6CAC3",
"fX c #CBD6C8",
"gX c #D4D8CC",
"hX c #D8DAD7",
"jX c #CED7D1",
"kX c #DEE3DB",
"lX c #E3E4DC",
"zX c #EBECE4",
"xX c #ECEEEC",
"cX c #E4E8E6",
"vX c #ECF1EA",
"bX c #FAFBF5",
"nX c #FFFFFF",
"mX c #F4F5F4",
"MX c #F2F2EA",
/* pixels */
"nXnXnXnXnXnXnXnXnXnXnXnXnXnXnXnXnXnXnXnXnXnXnXnXnXnXnXnXnXnXnXnXnXnXnXnXnXnXnXnXnXnXnXnXnXnXnXnXnXnXnXnXnXnXnXnXnXnXnXnXnXnXnXnX",
"nXnXnXnXnXnXnXnXnXnXnXnXnXnXnXnXnXnXnXnXnXnXnXnXnXnXnXnXnXnXnXnXbXnXnXnXnXnXnXnXnXnXnXnXnXnXnXnXnXnXnXnXnXnXnXnXnXnXnXnXnXnXnXnX",
"nXnXnXnXnXnXnXnXnXnXnXnXnXnXnXnXnXnXnXnXnXnXnXnXnXnXnXnXnXnXnXbXnXbXbXnXnXnXnXnXnXnXnXnXnXnXnXnXnXnXnXnXnXnXnXnXnXnXnXnXnXnXnXnX",
"nXnXnXnXnXnXnXnXnXnXnXnXnXnXnXnXnXnXnXnXnXnXnXnXnXnXnXnXbXnXlXpXlXMXbXbXnXnXnXnXnXnXnXnXnXnXnXnXnXnXnXnXnXnXnXnXnXnXnXnXnXnXnXnX",
"nXnXnXnXnXnXnXnXnXnXnXnXnXnXnXnXnXnXnXnXnXnXnXnXnXnXnXbXnXyX) * L  XuXnXbXnXnXnXnXnXnXnXnXnXnXnXnXnXnXnXnXnXnXnXnXnXnXnXnXnXnXnX",
"nXnXnXnXnXnXnXnXnXnXnXnXnXnXnXnXnXnXnXnXnXnXnXnXnXnXbXnX8XQ.&.{ X.* E.>XnXbXnXnXnXnXnXnXnXnXnXnXnXnXnXnXnXnXnXnXnXnXnXnXnXnXnXnX",
"nXnXnXnXnXnXnXnXnXnXnXnXnXnXnXnXnXnXnXnXnXnXnXnXnXbXnXqXh (.6 `.6X@ Q.= 5XnXbXnXnXnXnXnXnXnXnXnXnXnXnXnXnXnXnXnXnXnXnXnXnXnXnXnX",
"nXnXnXnXnXnXnXnXnXnXnXnXnXnXnXnXnXnXnXnXnXnXnXnXnXnXyXu +.B.o.#.#.> Q.J 9 wXnXbXnXnXnXnXnXnXnXnXnXnXnXnXnXnXnXnXnXnXnXnXnXnXnXnX",
"nXnXnXnXnXnXnXnXnXnXnXnXnXnXnXnXnXnXnXnXnXnXnXnXnXeX~ 3 /.9 <.@.| #.i C.9 r.7XnXnXnXnXnXnXnXnXnXnXnXnXnXnXnXnXnXnXnXnXnXnXnXnXnX",
"nXnXnXnXnXnXnXnXnXnXnXnXnXnXnXnXnXnXnXnXnXnXbXnXfXz l j A.a 4.> s P.X Q.i h.y.4XnXbXnXnXnXnXnXnXnXnXnXnXnXnXnXnXnXnXnXnXnXnXnXnX",
"nXnXnXnXnXnXnXnXnXnXnXnXnXnXnXnXnXnXnXnXnXbXnXfXb s.v Z.Z.E ].D z.I.> &.i B g.S 4XnXbXnXnXnXnXnXnXnXnXnXnXnXnXnXnXnXnXnXnXnXnXnX",
"nXnXnXnXnXnXnXnXnXnXnXnXnXnXnXnXnXnXnXnXnXnXyXb 8 W y N.p $.| 7.~.C. .= M.7 k.g.N 4XnXnXnXnXnXnXnXnXnXnXnXnXnXnXnXnXnXnXnXnXnXnX",
"nXnXnXnXnXnXnXnXnXnXnXnXnXnXnXnXnXnXnXbXnXjXW z b v h }.a ;X: * - J P.+ M.= r.g.A N 6XnXbXnXnXnXnXnXnXnXnXnXnXnXnXnXnXnXnXnXnXnX",
"nXnXnXnXnXnXnXnXnXnXnXnXnXnXnXnXnXnXbXnXfXW x k ~ p b.S.u `.+ 0X1.. ].; ! F B k.Z A m 4XnXnXbXnXnXnXnXnXnXnXnXnXnXnXnXnXnXnXnXnX",
"nXnXnXnXnXnXnXnXnXnXnXnXnXnXnXnXnXnXnXgX( z ^ n ~ y K.^ $.< ,.#.2.: [ [ G ;.l k.y.A V m 5XnXbXnXnXnXnXnXnXnXnXnXnXnXnXnXnXnXnXnX",
"nXnXnXnXnXnXnXnXnXnXnXnXnXnXnXnXbXnXhX! P / c b b h {.% I.f 1X; ' P.: 1.X W.F r.k.r.Z I m 5XnXnXnXnXnXnXnXnXnXnXnXnXnXnXnXnXnXnX",
"nXnXnXnXnXnXnXnXnXnXnXnXnXnXnXbXnXgX! Q / U ^ f.h n.b.[ ;XY.%.K.I J.} U.d ! T.e k.g.A I I G 5XnXnXnXnXnXnXnXnXnXnXnXnXnXnXnXnXnX",
"nXnXnXnXnXnXnXnXnXnXnXnXnXnXnXnXgXO.I ! l z l W k Z.$.xXL.:.j %XOXg 4.>.xXK W.w j.j.Z A V I F 0XnXbXnXnXnXnXnXnXnXnXnXnXnXnXnXnX",
"nXnXnXnXnXnXnXnXnXnXnXnXnXnXnXmX&.F ! ( x k a h = |.MXfX,.j D.oXaXR O.| hXMX7XF c.c.g.V I I G O.zXnXnXnXnXnXnXnXnXnXnXnXnXnXnXnX",
"nXnXnXnXnXnXnXnXnXnXnXnXnXnXnXtXG ! ! Y U c Y 6 O.bXzX9X] u Z.4 +XOX! *XY.vXbXO.i.k.h.Z V I ! I gXnXnXnXnXnXnXnXnXnXnXnXnXnXnXnX",
"nXnXnXnXnXnXnXnXnXnXnXnXnXbXnX0XF ! / P c n w o.zXnXuXyX> w.^ 0 u.%XT.f 2X3XnXzXA.h.k.Z V I ! G hXnXnXnXnXnXnXnXnXnXnXnXnXnXnXnX",
"nXnXnXnXnXnXnXnXnXnXnXnXnXnXnXgXG I Y c w q Q cXnXsX>X..h S.w.n 3 ^.#X6 1X5XsXnXzX).h.y.A R M [.nXnXnXnXnXnXnXnXnXnXnXnXnXnXnXnX",
"nXnXnXnXnXnXnXnXnXnXnXnXnXnXnXnX].P z q 5 +.lXnXnX#.6.. M.d.w.q.# s OXz., qX3.bXbXzX/.y.V B C.zXnXbXnXnXnXnXnXnXnXnXnXnXnXnXnXnX",
"nXnXnXnXnXnXnXnXnXnXnXnXnXnXnXnXbX6X$.b.<XzXnXnX8XP.>.= ).w.t.q.4 + N.%X& #.< 8XnXnXbXyX7XtXbXnXnXnXnXnXnXnXnXnXnXnXnXnXnXnXnXnX",
"nXnXnXnXnXnXnXnXnXnXnXnXnXnXnXnXbXnXbXnXnXnXbXmX..gX, F &.n a.t.q # 9 XX{.i -X< nXbXbXnXnXnXnXbXnXnXnXnXnXnXnXnXnXnXnXnXnXnXnXnX",
"nXnXnXnXnXnXnXnXnXnXnXnXnXnXnXnXnXnXnXnXnXbXnX-X5.=Xa  XQ l e.q.r q 6 S.(.$ qX1.6.nXnXnXbXnXnXnXnXnXnXnXnXnXnXnXnXnXnXnXnXnXnXnX",
"nXnXnXnXnXnXnXnXnXnXnXnXnXnXnXnXnXnXnXnXnXnXkXH.6X' F |.3 d.r.C S r 8 Q wX) #.rXf vXnXnXnXnXnXnXnXnXnXnXnXnXnXnXnXnXnXnXnXnXnXnX",
"nXnXnXnXnXnXnXnXnXnXnXnXnXnXnXnXnXnXnXnXbXnX*X2.<.h A.K.5 p.t.C e q.0 q D.{.> 2XF.U.nXmXnXnXnXnXnXnXnXnXnXnXnXnXnXnXnXnXnXnXnXnX",
"nXnXnXnXnXnXnXnXnXnXnXnXnXnXnXnXnXnXnXbXnXdX-.V.1.$  Xn.w.a.e.C Y q.q 0 v.OXE 2.F.g jXnXnXnXnXnXnXnXnXnXnXnXnXnXnXnXnXnXnXnXnXnX",
"nXnXnXnXnXnXnXnXnXnXnXnXnXnXnXnXnXnXnXnXnX4.H.} 2.= Z.3 u.e.C T Y U w.0 k oXl.J.=.:...nXbXnXnXnXnXnXnXnXnXnXnXnXnXnXnXnXnXnXnXnX",
"nXnXnXnXnXnXnXnXnXnXnXnXnXnXnXnXnXnXnXnX8X6.d <.g l.x.k s.e.e.T U u.c n a b.B.g 3.#.{ 8XnXnXnXnXnXnXnXnXnXnXnXnXnXnXnXnXnXnXnXnX",
"nXnXnXnXnXnXnXnXnXnXnXnXnXnXnXnXnXnXnXxX,.4.@ 4X% ).s u.a.r.T R / Y c k l v OXF Y.: =X' nXbXnXnXnXnXnXnXnXnXnXnXnXnXnXnXnXnXnXnX",
"nXnXnXnXnXnXnXnXnXnXnXnXnXnXnXnXnXbXnX3XU.& %. .+ }.$ u.t.r.i.R R x e a s 3 (.9 @.< { *.-XnXmXnXnXnXnXnXnXnXnXnXnXnXnXnXnXnXnXnX",
"nXnXnXnXnXnXnXnXnXnXnXnXnXnXnXnXnXnXcX=.@.X h P.. |.i j.j.i.T R / f.x l a u (.p L., + P.< cXnXnXnXnXnXnXnXnXnXnXnXnXnXnXnXnXnXnX",
"nXnXnXnXnXnXnXnXnXnXnXnXnXnXnXnXbXnX:X4Xi _.D P.@ &.s c j.g.T R Y ~ n / a +.( h ;X7 ) } >.4.nXnXbXnXnXnXnXnXnXnXnXnXnXnXnXnXnXnX",
"nXnXnXnXnXnXnXnXnXnXnXnXnXnXnXbXnXdXJ...) &X! $.{ = C.8 x.j.T T u.Y 8 v $ N.i o...V @X1 6.| dXnXnXnXnXnXnXnXnXnXnXnXnXnXnXnXnXnX",
"nXnXnXnXnXnXnXnXnXnXnXnXnXnXnXnXnX>X4.O E.$X_.i >.X C.3 u.j.r.e.u.u.U W E A.z ].> g.@X8.< U.=XnXnXbXnXnXnXnXnXnXnXnXnXnXnXnXnXnX",
"nXnXnXnXnXnXnXnXnXnXnXnXnXnXnXnXnXjX4.,.7 XXXX7 U.o ! E w c.i.i.u.q P y +.) $ P.# _ _.8.:X| hXnXnXnXnXnXnXnXnXnXnXnXnXnXnXnXnXnX",
"nXnXnXnXnXnXnXnXnXnXnXnXnXnXnXnXnXnX3XL.& I $X) O.H i &.3 j.a.p.u.Y ^ p M.s.$.#.7 ~.D =.[.=XnXnXnXnXnXnXnXnXnXnXnXnXnXnXnXnXnXnX",
"nXnXnXnXnXnXnXnXnXnXnXnXnXnXnXnXnXnXxX1.=.X ~._.g 3.O &.3 T j.t.q.^ W E Q.= H.y L T.D '.' xXnXnXnXnXnXnXnXnXnXnXnXnXnXnXnXnXnXnX",
"nXnXnXnXnXnXnXnXnXnXnXnXnXnXnXnXnXbXnX0X<.: 7 @X7 '.o M.J w x.a.q.~ p Q Q.y 3.@ _.-  .O.8XnXbXnXnXnXnXnXnXnXnXnXnXnXnXnXnXnXnXnX",
"nXnXnXnXnXnXnXnXnXnXnXnXnXnXnXnXnXnXnXmXU.L.@  XT.@.< i ! 8 p.a.w.m.s M.R V.O.- M.i -X .nXnXnXnXnXnXnXnXnXnXnXnXnXnXnXnXnXnXnXnX",
"nXnXnXnXnXnXnXnXnXnXnXnXnXnXnXnXnXnXbXnXdXI.H G ~.H 5.O Q.p p.d.z v p /.% >.> z.- 2.[ dXnXnXnXnXnXnXnXnXnXnXnXnXnXnXnXnXnXnXnXnX",
"nXnXnXnXnXnXnXnXnXnXnXnXnXnXnXnXnXnXnXnXnXU.P.o !.G 3.o M.i p.d.d.v ( W./ Y.o L &.].>.nXmXnXnXnXnXnXnXnXnXnXnXnXnXnXnXnXnXnXnXnX",
"nXnXnXnXnXnXnXnXnXnXnXnXnXnXnXnXnXnXnXnXnXhX#.{ - M #.` > m.b x b.6 S.i J ..& & 4.d kXnXnXnXnXnXnXnXnXnXnXnXnXnXnXnXnXnXnXnXnXnX",
"nXnXnXnXnXnXnXnXnXnXnXnXnXnXnXnXnXnXnXnXnXnX,X3.o 1 J >.+ Q.l v.b.s /.l J.< X | <.'.nXmXnXnXnXnXnXnXnXnXnXnXnXnXnXnXnXnXnXnXnXnX",
"nXnXnXnXnXnXnXnXnXnXnXnXnXnXnXnXnXnXnXnXnXnXxX3.>.* - P.O O.Y v.~ N.l.6 P.. o -Xf xXnXnXnXnXnXnXnXnXnXnXnXnXnXnXnXnXnXnXnXnXnXnX",
"nXnXnXnXnXnXnXnXnXnXnXnXnXnXnXnXnXnXnXnXnXmXnX5XP.} . #.[ F S.%.k /.s.} #.  3. .>XnXnXnXnXnXnXnXnXnXnXnXnXnXnXnXnXnXnXnXnXnXnXnX",
"nXnXnXnXnXnXnXnXnXnXnXnXnXnXnXnXnXnXnXnXnXnXbXnX1.:.. < 1.o A.b n.(.w Y.: o P.[ nXbXnXnXnXnXnXnXnXnXnXnXnXnXnXnXnXnXnXnXnXnXnXnX",
"nXnXnXnXnXnXnXnXnXnXnXnXnXnXnXnXnXnXnXnXnXnXbXnXsX$.<   ;X@ B.l v.^.> Y.  6.[ qXnXnXnXnXnXnXnXnXnXnXnXnXnXnXnXnXnXnXnXnXnXnXnXnX",
"nXnXnXnXnXnXnXnXnXnXnXnXnXnXnXnXnXnXnXnXnXnXnXnXnX6.6.   .' Q Q ).N.V.@.: 0.>.nXbXnXnXnXnXnXnXnXnXnXnXnXnXnXnXnXnXnXnXnXnXnXnXnX",
"nXnXnXnXnXnXnXnXnXnXnXnXnXnXnXnXnXnXnXnXnXnXnXnXnXjX1.{ > L.= ~ {.s 2.: I.H hXnXnXnXnXnXnXnXnXnXnXnXnXnXnXnXnXnXnXnXnXnXnXnXnXnX",
"nXnXnXnXnXnXnXnXnXnXnXnXnXnXnXnXnXnXnXnXnXnXnXnXnXnX-X'.> K.u N.^./ H.#.<.=XnXmXnXnXnXnXnXnXnXnXnXnXnXnXnXnXnXnXnXnXnXnXnXnXnXnX",
"nXnXnXnXnXnXnXnXnXnXnXnXnXnXnXnXnXnXnXnXnXnXnXnXnXnXxXI.@.*.] Q Z.V.].I.[ xXnXnXnXnXnXnXnXnXnXnXnXnXnXnXnXnXnXnXnXnXnXnXnXnXnXnX",
"nXnXnXnXnXnXnXnXnXnXnXnXnXnXnXnXnXnXnXnXnXnXnXnXnXbXnX9XK.o.,.P Z.%.1X$.3XnXbXnXnXnXnXnXnXnXnXnXnXnXnXnXnXnXnXnXnXnXnXnXnXnXnXnX",
"nXnXnXnXnXnXnXnXnXnXnXnXnXnXnXnXnXnXnXnXnXnXnXnXnXbXnXmXY.H.<.u ^ Y.,.| nXnXnXnXnXnXnXnXnXnXnXnXnXnXnXnXnXnXnXnXnXnXnXnXnXnXnXnX",
"nXnXnXnXnXnXnXnXnXnXnXnXnXnXnXnXnXnXnXnXnXnXnXnXnXnXnXnXtX$.*Xg & yX< qXnXnXnXnXnXnXnXnXnXnXnXnXnXnXnXnXnXnXnXnXnXnXnXnXnXnXnXnX",
"nXnXnXnXnXnXnXnXnXnXnXnXnXnXnXnXnXnXnXnXnXnXnXnXnXnXnXbXnX4.2X{ `.3XX.nXnXnXnXnXnXnXnXnXnXnXnXnXnXnXnXnXnXnXnXnXnXnXnXnXnXnXnXnX",
"nXnXnXnXnXnXnXnXnXnXnXnXnXnXnXnXnXnXnXnXnXnXnXnXnXnXnXnXnXfX0.0X:X< jXnXnXnXnXnXnXnXnXnXnXnXnXnXnXnXnXnXnXnXnXnXnXnXnXnXnXnXnXnX",
"nXnXnXnXnXnXnXnXnXnXnXnXnXnXnXnXnXnXnXnXnXnXnXnXnXnXnXnXmXnX0.3XP.3.nXnXnXnXnXnXnXnXnXnXnXnXnXnXnXnXnXnXnXnXnXnXnXnXnXnXnXnXnXnX",
"nXnXnXnXnXnXnXnXnXnXnXnXnXnXnXnXnXnXnXnXnXnXnXnXnXnXnXnXmXnXxXh f xXnXnXnXnXnXnXnXnXnXnXnXnXnXnXnXnXnXnXnXnXnXnXnXnXnXnXnXnXnXnX",
"nXnXnXnXnXnXnXnXnXnXnXnXnXnXnXnXnXnXnXnXnXnXnXnXnXnXnXnXnXnXnXiXiXnXnXnXnXnXnXnXnXnXnXnXnXnXnXnXnXnXnXnXnXnXnXnXnXnXnXnXnXnXnXnX",
"nXnXnXnXnXnXnXnXnXnXnXnXnXnXnXnXnXnXnXnXnXnXnXnXnXnXnXnXnXnXnXbXnXbXnXnXnXnXnXnXnXnXnXnXnXnXnXnXnXnXnXnXnXnXnXnXnXnXnXnXnXnXnXnX",
"nXnXnXnXnXnXnXnXnXnXnXnXnXnXnXnXnXnXnXnXnXnXnXnXnXnXnXnXnXnXnXnXnXnXnXnXnXnXnXnXnXnXnXnXnXnXnXnXnXnXnXnXnXnXnXnXnXnXnXnXnXnXnXnX"
};
