/* XPM */
static char *f36991725ce14d1dbe44c7b5d76d3e90Do1zamKi4PKphn49[] = {
/* columns rows colors chars-per-pixel */
"32 32 53 1 ",
"  c None",
". c black",
"X c #010000",
"o c #000100",
"O c #000001",
"+ c #010101",
"@ c #020202",
"# c #030202",
"$ c #020203",
"% c #020303",
"& c gray1",
"* c #040404",
"= c #050404",
"- c #040504",
"; c #050504",
": c #040405",
"> c #050405",
", c gray2",
"< c #060606",
"1 c #070606",
"2 c #070707",
"3 c gray3",
"4 c #080809",
"5 c #090809",
"6 c #080909",
"7 c #090909",
"8 c #09090B",
"9 c gray4",
"0 c #0B0B0B",
"q c #0C0C0C",
"w c #0D0C0C",
"e c #0C0D0C",
"r c #0C0C0D",
"t c gray5",
"y c #0E0E0E",
"u c #0F0F0E",
"i c gray6",
"p c #101010",
"a c #101111",
"s c #111111",
"d c gray7",
"f c #121213",
"g c gray8",
"h c #151414",
"j c #151514",
"k c #151515",
"l c #181818",
"z c gray10",
"x c #1B1B1B",
"c c #1D1D1D",
"v c #1E1E1F",
"b c gray12",
"n c #222222",
/* pixels */
"                i               ",
"              r3i,              ",
"             r.ub.#             ",
"            0.#fr,.,            ",
"           ,..,82r..3           ",
"          f...r  i...3          ",
"         r...1  i ,...,         ",
"        3...=  ,,  ,...,        ",
"       r...&   ..3  3...,       ",
"       3..,   ,...   ,..,       ",
"        ,,   f....3   ,,        ",
"             ,.....c            ",
"            f......3            ",
"            3.#....,            ",
"           x........r           ",
"          xr........3x          ",
"          2d........f,x         ",
"         u.0,......*j.,         ",
"         0.,f......3r.,         ",
"          &.f......f,.z         ",
"          j.u=.....j.3          ",
"           .,0....,r.           ",
"           z.f=...f=r           ",
"            ,3=...f=            ",
"            b2r..3rr            ",
"             rr..ur             ",
"              r,.fx             ",
"              nr,c              ",
"               ju               ",
"                                ",
"                                ",
"                                "
};
