/* XPM */
static char *_534725698760[] = {
/* columns rows colors chars-per-pixel */
"32 32 194 2 ",
"   c #3D3B1E",
".  c #2E3322",
"X  c #353734",
"o  c #272925",
"O  c #1B5508",
"+  c #234C19",
"@  c #21620B",
"#  c #36760F",
"$  c #20691A",
"%  c #395B2C",
"&  c #3C4439",
"*  c #3A4627",
"=  c #296D28",
"-  c #2C6B20",
";  c #326D25",
":  c #35622C",
">  c #366629",
",  c #3E7F25",
"<  c #3C762C",
"1  c #3B752B",
"2  c #3E7131",
"3  c #4A5B1A",
"4  c #49640F",
"5  c #506E0B",
"6  c #567B0F",
"7  c #496617",
"8  c #445A2C",
"9  c #4C592D",
"0  c #4B5E26",
"q  c #414436",
"w  c #43463C",
"e  c #434B3D",
"r  c #4C5235",
"t  c #485635",
"y  c #625B3A",
"u  c #4C642E",
"i  c #426C29",
"p  c #5E662F",
"a  c #506928",
"s  c #596928",
"d  c #437A2D",
"f  c #4B7A2D",
"g  c #477925",
"h  c #557B25",
"j  c #5B7B23",
"k  c #5C7E2B",
"l  c #496F31",
"z  c #4D6F38",
"x  c #456A36",
"c  c #596434",
"v  c #516E35",
"b  c #56603F",
"n  c #5F633F",
"m  c #5B6936",
"M  c #447535",
"N  c #4D7B34",
"B  c #4D7337",
"V  c #5B7737",
"C  c #54753C",
"Z  c #507A3C",
"A  c #5B753A",
"S  c #686E2A",
"D  c #6F6E38",
"F  c #62793E",
"G  c #707130",
"H  c #464B44",
"J  c #465343",
"K  c #4D5A41",
"L  c #4C544A",
"P  c #4C5C49",
"I  c #455944",
"U  c #505447",
"Y  c #515A43",
"T  c #595749",
"R  c #55594D",
"E  c #4E5450",
"W  c #535C55",
"Q  c #4D6648",
"!  c #566140",
"~  c #506F45",
"^  c #51634A",
"/  c #526848",
"(  c #596343",
")  c #5E7446",
"_  c #567645",
"`  c #536655",
"'  c #5E6056",
"]  c #5B6C53",
"[  c #5A645A",
"{  c #5E6C5D",
"}  c #597A51",
"|  c #646F40",
" . c #6B6A41",
".. c #617046",
"X. c #69724D",
"o. c #787642",
"O. c #767E47",
"+. c #616E5D",
"@. c #65785D",
"#. c #737651",
"$. c #646866",
"%. c #677B67",
"&. c #6F7E6D",
"*. c #6C7268",
"=. c #74796B",
"-. c #767974",
";. c #358A1F",
":. c #5A800E",
">. c #4D841B",
",. c #498A1C",
"<. c #5B921D",
"1. c #59851A",
"2. c #428223",
"3. c #5D8B24",
"4. c #588226",
"5. c #4D9329",
"6. c #589424",
"7. c #538A3B",
"8. c #5C8A3A",
"9. c #648820",
"0. c #658E28",
"q. c #648625",
"w. c #5F8045",
"e. c #5E8248",
"r. c #5D8152",
"t. c #648443",
"y. c #72854C",
"u. c #6A9B49",
"i. c #7C9048",
"p. c #729E42",
"a. c #6A8454",
"s. c #738851",
"d. c #6F9755",
"f. c #779656",
"g. c #778F6C",
"h. c #71856D",
"j. c #7A8479",
"k. c #7A9C71",
"l. c #848F3F",
"z. c #9F943C",
"x. c #9D9F47",
"c. c #889751",
"v. c #86975E",
"b. c #89A34D",
"n. c #97A048",
"m. c #83A25D",
"M. c #97BA59",
"N. c #82836E",
"B. c #87987D",
"V. c #829377",
"C. c #9CB372",
"Z. c #899F8D",
"A. c #8D918B",
"S. c #96988A",
"D. c #929084",
"F. c #8C9890",
"G. c #9A9D99",
"H. c #9BA782",
"J. c #9BA597",
"K. c #9DA49E",
"L. c #AAB88A",
"P. c #A4AF92",
"I. c #ADB09A",
"U. c #A7AAA9",
"Y. c #ADAEAC",
"T. c #AAB8A8",
"R. c #BCBCA0",
"E. c #B5BAB6",
"W. c #B3C28F",
"Q. c #AFC5A9",
"!. c #B1C7AC",
"~. c #B9C3B2",
"^. c #C0C6AE",
"/. c #C2C6B5",
"(. c #C3C7BF",
"). c #C4C8C4",
"_. c #CFD1CD",
"`. c #D7DBD5",
"'. c #DBDCDA",
"]. c #D9D9D6",
"[. c #D4D7C9",
"{. c #DFE1DD",
"}. c #EBE8DB",
"|. c #E0E2E0",
" X c #E4E9E1",
".X c #E9E9E5",
"XX c #EDEDEC",
"oX c #F0EEEE",
"OX c #EEF0ED",
"+X c #F1F2EF",
"@X c #F6F4E2",
"#X c #F7F8F7",
"$X c #FFFFFF",
"%X c #F4F5F4",
/* pixels */
"$X$X$X$X$X$X$X$X$X$X$X$X$X$X$X$X$X$X$X$X$X$X$X$X$X$X$X$X$X$X$X$X",
"$X$X$X$X$X$X$X$X$X$X$X$X$X$X$X}.@X$X$X$X$X$X$X$X$X$X$X$X$X$X$X$X",
"$X$X$X$X$X$X$X$X$X$X$X$X$X$X~.c D R.$X$X$X$X$X$X$X$X$X$X$X$X$X$X",
"$X$X$X$X$X$X$X$X$X$X$X#X$XT.V @.W 8 P.$X#X$X$X$X$X$X$X$X$X$X$X$X",
"$X$X$X$X$X$X$X$X$X$X$X$XQ.: ..` P b 7 W.$X$X$X$X$X$X$X$X$X$X$X$X",
"$X$X$X$X$X$X$X$X$X#X$X!.; N r.y O.J a 6 L.$X$X$X$X$X$X$X$X$X$X$X",
"$X$X$X$X$X$X$X$X$X$X~.; : } ^ R Y t 9 k 5 P.$X$X$X$X$X$X$X$X$X$X",
"$X$X$X$X$X$X$X$X$X/.< < x C ` { E H 9 q.9.3 P.$X$X$X$X$X$X$X$X$X",
"$X$X$X$X$X$X$X$X/.u i M M k.-.d.s.$.N.4.0.j 3 I.$X$X$X$X$X$X$X$X",
"$X$X$X$X$X$X$X.Xc l < + B.}.I u.M.] `.H.1.k s c .X$X$X$X$X$X$X$X",
"$X$X$X$X$X$X$X'.0 i @ g.oXS.l = p.i.S.+XC.6 4 F +X$X$X$X$X$X$X$X",
"$X$X$X$X$X$X$X$XJ.d k.$XY.& 8.;.+ b.T G.$XL.v.[.$X$X$X$X$X$X$X$X",
"$X$X$X$X$X$X$X$X$X#X$X'.j.) N ,.O t.y.$.].$X$X$X$X$X$X$X$X$X$X$X",
"$X$X$X$X$X$X$X$X$X$X$XJ.] a.d >.# 2 m.%.Z.$X#X$X$X$X$X$X$X$X$X$X",
"$X$X$X$X$X$X$X$X$X$X_.+.! _ 2.>.2.$ u.a.` ).$X$X$X$X$X$X$X$X$X$X",
"$X$X$X$X$X$X$X$X$X#Xj.K A f ,.h N - M s.E -.#X$X$X$X$X$X$X$X$X$X",
"$X$X$X$X$X$X$X$X$X(.& J ( f 6.h N ; % t.J w E.$X$X$X$X$X$X$X$X$X",
"$X$X$X$X$X$X$X$X+X=.l.X.& l q.h d > x _ | D $..X$X$X$X$X$X$X$X$X",
"$X$X$X$X$X$X$X$X{.L n.c.& 8 4.3.2.: V Q m z.' `.$X$X$X$X$X$X$X$X",
"$X$X$X$X$X$X$X$X$XK.* n.L t g 6., x F P S n G.$X$X$X$X$X$X$X$X$X",
"$X$X$X$X$X$X$X$X$X.X` G #.r l 5.< C ) b p [ |.$X$X$X$X$X$X$X$X$X",
"$X$X$X$X$X$X$X$X$X$XE.r D H u 5.M V / t ( U.$X#X$X$X$X$X$X$X$X$X",
"$X$X$X$X$X$X$X$X$X$X%X*.  U t 7.N A I . =.oX$X$X$X$X$X$X$X$X$X$X",
"$X$X$X$X$X$X$X$X$X$X$X).w q Y 7.e.t.X H E.$X$X$X$X$X$X$X$X$X$X$X",
"$X$X$X$X$X$X$X$X$X$X$X$Xj.o U Z p.] X -.#X$X$X$X$X$X$X$X$X$X$X$X",
"$X$X$X$X$X$X$X$X$X$X$X$X`.H H z u.P R _.$X$X$X$X$X$X$X$X$X$X$X$X",
"$X$X$X$X$X$X$X$X$X$X$X$X$XJ.P ~ d.@.A.$X$X$X$X$X$X$X$X$X$X$X$X$X",
"$X$X$X$X$X$X$X$X$X$X$X$X$X Xh.Q r.&.'.$X$X$X$X$X$X$X$X$X$X$X$X$X",
"$X$X$X$X$X$X$X$X$X$X$X$X$X$XT.{ *.K.$X$X$X$X$X$X$X$X$X$X$X$X$X$X",
"$X$X$X$X$X$X$X$X$X$X$X$X$X$XXXD.-..X$X$X$X$X$X$X$X$X$X$X$X$X$X$X",
"$X$X$X$X$X$X$X$X$X$X$X$X$X$X$X~.~.$X$X$X$X$X$X$X$X$X$X$X$X$X$X$X",
"$X$X$X$X$X$X$X$X$X$X$X$X$X$X$X$X#X$X$X$X$X$X$X$X$X$X$X$X$X$X$X$X"
};
