/* XPM */
static char *_534725735760[] = {
/* columns rows colors chars-per-pixel */
"16 16 154 2 ",
"   c white",
".  c white",
"X  c #FDFEFD",
"o  c #F6F5EF",
"O  c #F9F8F0",
"+  c #FEFEFD",
"@  c white",
"#  c white",
"$  c #FDFDFD",
"%  c #E8EEE7",
"&  c #788864",
"*  c #747C5D",
"=  c #E7EBE0",
"-  c #FDFDFC",
";  c white",
":  c white",
">  c #FDFEFD",
",  c #EAF0E9",
"<  c #5C8550",
"1  c #50673B",
"2  c #4B5936",
"3  c #67823B",
"4  c #EAEDDF",
"5  c #FEFEFD",
"6  c white",
"7  c #FEFEFE",
"8  c #F1F1ED",
"9  c #5C874F",
"0  c #376729",
"q  c #626D55",
"w  c #505448",
"e  c #466217",
"r  c #6D8737",
"t  c #E8E8E5",
"y  c #FEFEFE",
"u  c white",
"i  c #FEFEFE",
"p  c #F9F8F7",
"a  c #6D8051",
"s  c #255C11",
"d  c #879D82",
"f  c #6C8D5E",
"g  c #768A5E",
"h  c #92A07E",
"j  c #4F770B",
"k  c #677440",
"l  c #F9F8F8",
"z  c #FEFEFE",
"x  c #FEFEFE",
"c  c #F5F3F1",
"v  c #5B7D44",
"b  c #8CAA83",
"n  c #ACA9A3",
"m  c #397324",
"M  c #5D8436",
"N  c #AEAFA8",
"B  c #ADBE88",
"V  c #83935D",
"C  c #FAF9FB",
"Z  c #FFFFFE",
"A  c white",
"S  c #FEFEFE",
"D  c white",
"F  c #E0E2DF",
"G  c #617454",
"H  c #427D1E",
"J  c #3E751D",
"K  c #6A7F58",
"L  c #D7DBDC",
"P  c #FDFEFD",
"I  c white",
"U  c white",
"Y  c #FEFFFE",
"T  c #7B847A",
"R  c #496E33",
"E  c #508624",
"W  c #3C7824",
"Q  c #547D3E",
"!  c #79837A",
"~  c #FEFDFF",
"^  c white",
"/  c white",
"(  c white",
")  c white",
"_  c #FDFDFD",
"`  c #C4C8BB",
"'  c #56603C",
"]  c #4A6834",
"[  c #5B8924",
"{  c #3D6F2A",
"}  c #496D39",
"|  c #555D3B",
" . c #BCBDB7",
".. c #FDFDFD",
"X. c white",
"o. c white",
"O. c #FDFDFD",
"+. c #ADB4AA",
"@. c #70793A",
"#. c #4E5C3D",
"$. c #4E8223",
"%. c #44782A",
"&. c #536C42",
"*. c #63692E",
"=. c #B3B5AA",
"-. c #FDFDFD",
";. c white",
":. c #FEFEFE",
">. c #F7F9FB",
",. c #767D60",
"<. c #565737",
"1. c #44782C",
"2. c #4F7E36",
"3. c #4F5D36",
"4. c #6D755D",
"5. c #F6F7FA",
"6. c #FEFEFE",
"7. c #FDFDFD",
"8. c #C4C7C2",
"9. c #3D3E2F",
"0. c #4F723C",
"q. c #5B843F",
"w. c #383F30",
"e. c #C1C4C0",
"r. c #FDFDFD",
"t. c white",
"y. c white",
"u. c #FEFDFD",
"i. c #727673",
"p. c #466035",
"a. c #587C3F",
"s. c #767675",
"d. c #FEFEFE",
"f. c white",
"g. c white",
"h. c #FDFEFD",
"j. c #DCE0DC",
"k. c #536E4A",
"l. c #5E7A53",
"z. c #D8DAD9",
"x. c #FDFDFD",
"c. c white",
"v. c white",
"b. c #FDFDFD",
"n. c #9CA596",
"m. c #959C92",
"M. c #FEFEFD",
"N. c white",
"B. c white",
"V. c #FEFEFE",
"C. c #EBEDE8",
"Z. c #E9EBE7",
"A. c #FEFEFE",
"S. c white",
/* pixels */
"      .   X   o O   +   @       ",
"    #   $   % & * =   -   ;     ",
"  :   >   , < 1 2 3 4   5   6   ",
"    7   8 9 0 q w e r t   y u   ",
"  i   p a s d f g h j k l   z   ",
"  x   c v b n m M N B V C   Z   ",
"    A S D F G H J K L   P I     ",
"  6 U Y   T R E W Q ! ~ ^ / (   ",
"  ) _   ` ' ] [ { } |  .  ..X.  ",
"  o.O.  +.@.#.$.%.&.*.=.  -.;.  ",
"    :.  >.,.<.1.2.3.4.5.  6.    ",
"    u 7.  8.9.0.q.w.e.  r.t.    ",
"    : y.u.  i.p.a.s.  d.f.g.    ",
"      t.h.  j.k.l.z.  x.t.      ",
"      c.v.b.  n.m.  M.N.c.      ",
"        B.V.  C.Z.  A.S.        "
};
