/* XPM */
static char *_57c5642b41d434acc1b1523fda4fcdep60GtTXqzwKEBzIj[] = {
/* columns rows colors chars-per-pixel */
"64 64 90 1 ",
"  c None",
". c black",
"X c #010000",
"o c #000100",
"O c #010100",
"+ c #000001",
"@ c #010001",
"# c #000101",
"$ c #010101",
"% c #020202",
"& c #030202",
"* c #020302",
"= c #020203",
"- c #020303",
"; c gray1",
": c #040404",
"> c #050404",
", c #050405",
"< c #040505",
"1 c gray2",
"2 c #050605",
"3 c #050506",
"4 c #060606",
"5 c #060706",
"6 c #070706",
"7 c #060607",
"8 c #070707",
"9 c gray3",
"0 c #080908",
"q c #090909",
"w c gray4",
"e c #0B0B0B",
"r c #0C0C0C",
"t c #0D0C0C",
"y c #0D0D0C",
"u c #0C0D0D",
"i c gray5",
"p c #0E0E0E",
"a c #0E0E0F",
"s c gray6",
"d c #101010",
"f c #111011",
"g c #111111",
"h c gray7",
"j c #131212",
"k c #131313",
"l c gray8",
"z c #151414",
"x c #151514",
"c c #151415",
"v c #151515",
"b c #161616",
"n c gray9",
"m c #181818",
"M c #181819",
"N c #191919",
"B c gray10",
"V c #1B1B1A",
"C c #1A1B1B",
"Z c #1B1B1B",
"A c gray11",
"S c #1D1D1D",
"D c #1E1E1E",
"F c gray12",
"G c #202020",
"H c gray13",
"J c #222222",
"K c #232323",
"L c gray14",
"P c #252525",
"I c gray15",
"U c #272727",
"Y c #282828",
"T c gray16",
"R c #2A2A2A",
"E c #2B2B2A",
"W c gray17",
"Q c #2C2C2C",
"! c #2D2D2D",
"~ c gray18",
"^ c #2F2E2F",
"/ c #2F2F2F",
"( c gray19",
") c #313131",
"_ c #323230",
"` c #323232",
"' c #343434",
"] c #343435",
"[ c #353435",
"{ c gray22",
/* pixels */
"                                                                ",
"                              kes4                              ",
"                             n;;A;4v                            ",
"                            k;;k 4;;k                           ",
"                           k;;;K[s;;;s                          ",
"                          s;;;ePsP;;;;e                         ",
"                         e;;;;vN;W;;;;;4                        ",
"                        e;;;;;Q4;Ak;;;;;T                       ",
"                       4;;;;;4P;;eP;;;;;;K                      ",
"                      ;;;;;;;ks4k; ;;;;;;;K                     ",
"                     k;;;;;;;Ps  4vr;;;;;;;v                    ",
"                    k;;;;;;;4TP   vN;;;;;;;;v                   ",
"                   s;;;;;;;;e   v   4;;;;;;;;s                  ",
"                  s;;;;;;;;e   s4   s;;;;;;;;;e                 ",
"                 e;;;;;;;;;    ;;e   s;;;;;;;;;4                ",
"                4;;;;;;;;4    e;;;N   k;;;;;;;;;4               ",
"               e;;;;;;;;e    A;;;;4    N;;;;;;;;;k              ",
"               ;;;;;;;;4     4;;;;;k    A;;;;;;;;4              ",
"              A;;;;;;;4     v;;;;;;;     A;;;;;;;e              ",
"               ;;;;;;e      4;;;;;;;k     k;;;;;;e              ",
"               s;;;;e      s;;;;;;;;;      4;;;;;               ",
"                k4;k       ;;;;;;;;;;4 [     e;s                ",
"                          4;;;;;;;;;;;N                         ",
"                          ;;;;;;;;;;;;e (                       ",
"                       Q k;;;;;;;;;;;;;                         ",
"                         4;;;;;;;;;;;;;k [                      ",
"                        P;;;;;;;;;;;;;;4                        ",
"                        s;;;;;;;;;;;;;;;K                       ",
"                       K4;;;;;;;;;;;;;;;kN                      ",
"                      kn;;;;;;;;;;;;;;;;eNv                     ",
"                     kks;;;;;;;;;;;;;;;;;vs                     ",
"                     eT4;;;;;;;;;;;;;;;;;vsk                    ",
"                    e;Pk;;;;;;;;;;;;;;;;;Te;                    ",
"                    4;sK;;;;;;;;;;;;;;;;4(;;s                   ",
"                   4;;;P;;;;;;;;;;;;;;;;kA;;;                   ",
"                   ;;;;N4;;;;;;;;;;;;;;;T4;;;4                  ",
"                  v;;;;sK;;;;;;;;;;;;;;:Q;;;;;                  ",
"                   e;;;;(4;;;;;;;;;;;;;kA;;;;k                  ",
"                   N;;;;Ae;;;;;;;;;;;;;L4;;;4                   ",
"                    e;;;sv;;;;;;;;;;;;4(;;;;v                   ",
"                     ;;;;Q4;;;;;;;;;;;vA;;;e                    ",
"                     s;;;Ks;;;;;;;;;;;Te;;;                     ",
"                      ;;;sA;;;;;;;;;;;T;;;s                     ",
"                      e;;4 ;;;;;;;;;;vA;;4                      ",
"                       4;;As;;;;;;;;;P4;;s                      ",
"                       N;;eP;;;;;;;;eQ;;e                       ",
"                        e;4Q;;;;;;;;vN;;A                       ",
"                         ;;N4;;;;;;;Pe;e                        ",
"                         s;sA;;;;;;4Q;;                         ",
"                          ;;Q4;;;;;vN;e                         ",
"                          k;Pk;;;;;Ts4                          ",
"                           ;sN;;;;4T;k                          ",
"                           N4 ;;;;kN4 [                         ",
"                            eAs;;;T4v                           ",
"                             kP;;eTs                            ",
"                             kP;;kN                             ",
"                              P4;AK                             ",
"                               A4Q                              ",
"                             [ (v                               ",
"                                  Q                             ",
"                              (                                 ",
"                                 (                              ",
"                                Q                               ",
"                                                                "
};
