/* XPM */
static char *_e26aca25c334234b1c5a5b99eb36ba0MId7egDV2XsQnxdM[] = {
/* columns rows colors chars-per-pixel */
"128 128 76 1 ",
"  c None",
". c black",
"X c #000100",
"o c #010101",
"O c #020101",
"+ c #010102",
"@ c #010202",
"# c #020202",
"$ c #030202",
"% c #020302",
"& c gray1",
"* c #040404",
"= c gray2",
"- c #060606",
"; c #070707",
": c #070708",
"> c gray3",
", c #090909",
"< c gray4",
"1 c #0B0A0A",
"2 c #0B0B0B",
"3 c #0C0B0B",
"4 c #0B0C0B",
"5 c #0C0C0C",
"6 c gray5",
"7 c #0E0E0E",
"8 c gray6",
"9 c #101010",
"0 c #111111",
"q c gray7",
"w c #131313",
"e c gray8",
"r c #151515",
"t c #161616",
"y c gray9",
"u c #181818",
"i c #191919",
"p c gray10",
"a c #1B1B1B",
"s c gray11",
"d c #1D1C1C",
"f c #1D1C1D",
"g c #1D1D1D",
"h c #1E1E1E",
"j c gray12",
"k c #202020",
"l c gray13",
"z c #222222",
"x c #232323",
"c c gray14",
"v c #252525",
"b c gray15",
"n c #272626",
"m c #272727",
"M c #282828",
"N c gray16",
"B c #2A2A2A",
"V c gray17",
"C c #2C2C2C",
"Z c #2D2D2D",
"A c gray18",
"S c #2F2F2F",
"D c gray19",
"F c #313131",
"G c #323232",
"H c gray20",
"J c #343434",
"K c #353535",
"L c gray21",
"P c #373737",
"I c gray22",
"U c #393939",
"Y c #3C3C3C",
"T c gray24",
"R c #414141",
"E c gray28",
/* pixels */
"                                                                                                                                ",
"                                                                                                                                ",
"                                                                                                                                ",
"                                                             a6yy,z                                                             ",
"                                                            w=&&=&&,F                                                           ",
"                                                          R6&&&ya&&&,z                                                          ",
"                                                         Y6&&&&zS=&&&&a                                                         ",
"                                                        P,&&&&,  6&&&&=y                                                        ",
"                                                       F,&&&&&w  y&&&&&&y                                                       ",
"                                                      S,&&&&&&z PS&&&&&&&y                                                      ",
"                                                     V=&&&&&&= za 6&&&&&&&w                                                     ",
"                                                    b,&&&&&&&y w, a&&&&&&&=6                                                    ",
"                                                   z,&&&&&&&&b ==SF&&&&&&&&&,                                                   ",
"                                                  a=&&&&&&&&, h&&y 6&&&&&&&&=,                                                  ",
"                                                 h=&&&&&&&&&y 6&&, 6&&&&&&&&&&=                                                 ",
"                                                a=&&&&&&&&&&V =&&=V &&&&&&&&&&&S                                                ",
"                                               6=&&&&&&&&&&, h&&&&y w&&&&&&&&&&&S                                               ",
"                                              w=&&&&&&&&&&&w 6&&&&, z&&&&&&&&&&&&V                                              ",
"                                             w=&&&&&&&&&&&=  =&&&&&b =&&&&&&&&&&&&b                                             ",
"                                            ,=&&&&&&&&&&&&= a&&&&&&w =&&&&&&&&&&&&=z                                            ",
"                                           V&&&&&&&&&&&&&&6 6&=hF,&6 w&&&&&&&&&&&&&&z                                           ",
"                                          D=&&&&&&&&&&&&&&F ==z  6&=z &&&&&&&&&&&&&&=a                                          ",
"                                         S=&&&&&&&&&&&&&&, a=z    ,=w =&&&&&&&&&&&&&&&a                                         ",
"                                        S=&&&&&&&&&&&&&&&6 wV      ,6 w&&&&&&&&&&&&&&&&y                                        ",
"                                       b&&&&&&&&&&&&&&&&&  F    U   wb =&&&&&&&&&&&&&&&&6                                       ",
"                                      z&&&&&&&&&&&&&&&&&,      6w      ,&&&&&&&&&&&&&&&&&w                                      ",
"                                     z=&&&&&&&&&&&&&&&&&6     V==z     a&&&&&&&&&&&&&&&&&&w                                     ",
"                                    h=&&&&&&&&&&&&&&&&&;V     6=&6      =&&&&&&&&&&&&&&&&&=,                                    ",
"                                   a&&&&&&&&&&&&&&&&&&&F     y&&&&w     a,&&&&&&&&&&&&&&&&&&,                                   ",
"                                  a=&&&&&&&&&&&&&&&&&=,      ,&&&&,      a,&&&&&&&&&&&&&&&&&&,                                  ",
"                                 y&&&&&&&&&&&&&&&&&&=y      a&&&&&&y      h,&&&&&&&&&&&&&&&&&&=                                 ",
"                                w&&&&&&&&&&&&&&&&&&=y       ,&&&&&&&b      V=&&&&&&&&&&&&&&&&&&=                                ",
"                               a=&&&&&&&&&&&&&&&&=,        w&&&&&&&&w        6&&&&&&&&&&&&&&&&&&=                               ",
"                              a=&&&&&&&&&&&&&&&&&,        F=&&&&&&&&=y        ,&&&&&&&&&&&&&&&&&=a                              ",
"                              =&&&&&&&&&&&&&&&&&,         6&&&&&&&&&&6         w&&&&&&&&&&&&&&&&&=                              ",
"                              =&&&&&&&&&&&&&&&&=         z&&&&&&&&&&&&y         w&&&&&&&&&&&&&&&&&y                             ",
"                             V&&&&&&&&&&&&&&&&,b         6&&&&&&&&&&&&&         Ew&&&&&&&&&&&&&&&&z                             ",
"                             S&&&&&&&&&&&&&&&,b         y&&&&&&&&&&&&&&w          ,&&&&&&&&&&&&&&&z                             ",
"                              =&&&&&&&&&&&&&6V          ,&&&&&&&&&&&&&&&F          w&&&&&&&&&&&&&&S                             ",
"                              6&&&&&&&&&&&&6F          6&&&&&&&&&&&&&&&&w           =&&&&&&&&&&&&&                              ",
"                              h&&&&&&&&&&&6        P  V=&&&&&&&&&&&&&&&&&h  S        =&&&&&&&&&&&y                              ",
"                               w&&&&&&&&&6         b  ,&&&&&&&&&&&&&&&&&&6  S         =&&&&&&&&&,                               ",
"                                w&&&&&&&6         b  y&&&&&&&&&&&&&&&&&&&&y  z         6&&&&&&&y                                ",
"                                 yy=&&wz          P  6&&&&&&&&&&&&&&&&&&&&,  FU         yy=&=wV                                 ",
"                                                 b  6&&&&&&&&&&&&&&&&&&&&&&w  b                                                 ",
"                                                SP  =&&&&&&&&&&&&&&&&&&&&&&&V  z                                                ",
"                                                z  h=&&&&&&&&&&&&&&&&&&&&&&&y  V                                                ",
"                                               z   6&&&&&&&&&&&&&&&&&&&&&&&&,   b                                               ",
"                                               S  b&&&&&&&&&&&&&&&&&&&&&&&&&&h  P                                               ",
"                                              z   y&&&&&&&&&&&&&&&&&&&&&&&&&&w   z                                              ",
"                                              V   6&&&&&&&&&&&&&&&&&&&&&&&&&&,   FP                                             ",
"                                             z    &&&&&&&&&&&&&&&&&&&&&&&&&&&&h   V                                             ",
"                                            VF   y&&&&&&&&&&&&&&&&&&&&&&&&&&&&6    b                                            ",
"                                            z  P ,&&&&&&&&&&&&&&&&&&&&&&&&&&&&, U  b                                            ",
"                                           h  F b&&&&&&&&&&&&&&&&&&&&&&&&&&&&&&a h  b                                           ",
"                                           z  z w&&&&&&&&&&&&&&&&&&&&&&&&&&&&&&6 y  V                                           ",
"                                          V  aw ,&&&&&&&&&&&&&&&&&&&&&&&&&&&&&&= ay  z                                          ",
"                                         PP  w b&&&&&&&&&&&&&&&&&&&&&&&&&&&&&&&&a ,  SV                                         ",
"                                         z  w, y&&&&&&&&&&&&&&&&&&&&&&&&&&&&&&&&6 6y  b                                         ",
"                                        zF P=w =&&&&&&&&&&&&&&&&&&&&&&&&&&&&&&&&, a=S  z                                        ",
"                                        b  w= z&&&&&&&&&&&&&&&&&&&&&&&&&&&&&&&&&&y =w  V                                        ",
"                                       h  z&4 6&&&&&&&&&&&&&&&&&&&&&&&&&&&&&&&&&&, w&a  b                                       ",
"                                       h  w&a ,&&&&&&&&&&&&&&&&&&&&&&&&&&&&&&&&&&& y&6  S                                       ",
"                                      z  y&&y w&&&&&&&&&&&&&&&&&&&&&&&&&&&&&&&&&&, a=&y  b                                      ",
"                                     PP  ,&&, z&&&&&&&&&&&&&&&&&&&&&&&&&&&&&&&&&&y w&&&  Sz                                     ",
"                                     z  y&&&&VP=&&&&&&&&&&&&&&&&&&&&&&&&&&&&&&&&&S ,&&&6  b                                     ",
"                                    SS S==&&&y 6&&&&&&&&&&&&&&&&&&&&&&&&&&&&&&&&6 a&&&&&z  V                                    ",
"                                    z  6&&&&&, a&&&&&&&&&&&&&&&&&&&&&&&&&&&&&&&&, 6&&&&&6  z                                    ",
"                                   b  h&&&&&&&b &&&&&&&&&&&&&&&&&&&&&&&&&&&&&&&&V =&&&&&=a  b                                   ",
"                                   b  w&&&&&&&y =&&&&&&&&&&&&&&&&&&&&&&&&&&&&&&, h&&&&&&&,  VU                                  ",
"                                  S  h&&&&&&&&6 6&&&&&&&&&&&&&&&&&&&&&&&&&&&&&&y 6&&&&&&&&y  z                                  ",
"                                  S  ,&&&&&&&&&bF&&&&&&&&&&&&&&&&&&&&&&&&&&&&&&V &&&&&&&&&=  zb                                 ",
"                                  V  y&&&&&&&&&w w&&&&&&&&&&&&&&&&&&&&&&&&&&&&= h&&&&&&&&&6  b                                  ",
"                                  zV  &&&&&&&&&= z&&&&&&&&&&&&&&&&&&&&&&&&&&&&y 6&&&&&&&&=z  b                                  ",
"                                   b  a&&&&&&&&&bU=&&&&&&&&&&&&&&&&&&&&&&&&&&=S =&&&&&&&&y  S                                   ",
"                                    S  ,&&&&&&&&y 6&&&&&&&&&&&&&&&&&&&&&&&&&&= h&&&&&&&&=  bb                                   ",
"                                    z  h&&&&&&&&, 6&&&&&&&&&&&&&&&&&&&&&&&&&&w w&&&&&&&&h  b                                    ",
"                                     V  w&&&&&&&=b =&&&&&&&&&&&&&&&&&&&&&&&&&V =&&&&&&&=  V                                     ",
"                                     z  b=&&&&&&&y ,&&&&&&&&&&&&&&&&&&&&&&&&, h&&&&&&&&h  V                                     ",
"                                      b  y&&&&&&&6 a&&&&&&&&&&&&&&&&&&&&&&&&a 6&&&&&&&w  S                                      ",
"                                      bb Y=&&&&&&&bF=&&&&&&&&&&&&&&&&&&&&&&&V &&&&&&&=z  b                                      ",
"                                       V  a&&&&&&&w 6&&&&&&&&&&&&&&&&&&&&&&, h&&&&&&&y  F                                       ",
"                                        V  ,&&&&&&, z&&&&&&&&&&&&&&&&&&&&&&y w&&&&&&=  bV                                       ",
"                                        z  a&&&&&&&bP=&&&&&&&&&&&&&&&&&&&&&V =&&&&&&h  z                                        ",
"                                         S  6&&&&&&y ,&&&&&&&&&&&&&&&&&&&&= h&&&&&&,  b                                         ",
"                                         b  a=&&&&&, 6&&&&&&&&&&&&&&&&&&&&y 6&&&&&=h  b                                         ",
"                                          h  6&&&&&&b =&&&&&&&&&&&&&&&&&&&V =&&&&&,  V                                          ",
"                                           V  &&&&&&a 6&&&&&&&&&&&&&&&&&&, a&&&&&&a  b                                          ",
"                                           b  a&&&&&, h&&&&&&&&&&&&&&&&&&y 6&&&&&a  V                                           ",
"                                            S  ,&&&&&bU=&&&&&&&&&&&&&&&&&b ,&&&&=  b                                            ",
"                                            b  a&&&&&w 6&&&&&&&&&&&&&&&&, h&&&&&h  V                                            ",
"                                             V  w&&&&= z&&&&&&&&&&&&&&&&a 6&&&&6  V                                             ",
"                                             z  b=&&&&bP&&&&&&&&&&&&&&&&y &&&&=h  b                                             ",
"                                              b  y&&&&y =&&&&&&&&&&&&&&, h&&&&6  V                                              ",
"                                               S  &&&&, 6&&&&&&&&&&&&&&y w&&&=   b                                              ",
"                                               b  y&&&=b &&&&&&&&&&&&&&b =&&&y  b                                               ",
"                                                S  w&&&w w&&&&&&&&&&&&, a&&&=  V                                                ",
"                                                z  z&&&, h&&&&&&&&&&&&a 6&&&a  b                                                ",
"                                                 V  w&&&bU&&&&&&&&&&&&V =&&,  V                                                 ",
"                                                 z  S&&&y 6&&&&&&&&&&, h&&=h  b                                                 ",
"                                                  h  y&&, z&&&&&&&&&&6 w&&w  V                                                  ",
"                                                   V  =&=b =&&&&&&&&&z =&=   z                                                  ",
"                                                   b  y&&y ,&&&&&&&&, h&&a  F                                                   ",
"                                                    V  6&, 6&&&&&&&&a 6&=  VF                                                   ",
"                                                    z  b&&b &&&&&&&&V =&a  b                                                    ",
"                                                     m  w&y 6&&&&&&, h&6  S                                                     ",
"                                                     b   &, z&&&&&&y 6=a  b                                                     ",
"                                                      z  y=VP&&&&&&V =y  V                                                      ",
"                                                      PV  =y w&&&&, h=b  z                                                      ",
"                                                       z  y, y&&&&6 wy  V                                                       ",
"                                                        F  wV =&&&V 6  VU                                                       ",
"                                                        b  Sy ,&&, ha  z                                                        ",
"                                                         h  z y&&y a  V                                                         ",
"                                                         S  FFP=&w h  b                                                         ",
"                                                          V  P 6, U  V                                                          ",
"                                                          YF   wa    z                                                          ",
"                                                           z   US   b                                                           ",
"                                                            F      V                                                            ",
"                                                            V      b                                                            ",
"                                                             b    V                                                             ",
"                                                             zF   b                                                             ",
"                                                              z  F                                                              ",
"                                                               SSS                                                              ",
"                                                               zz                                                               ",
"                                                                                                                                ",
"                                                                                                                                ",
"                                                                                                                                ",
"                                                                                                                                "
};
