/* XPM */
static char *_49becf00c9942588e41b9dccccd0e77LcxCYmWGHhVIj1Hc[] = {
/* columns rows colors chars-per-pixel */
"16 16 41 1 ",
"  c None",
". c black",
"X c #010000",
"o c #000100",
"O c #010100",
"+ c #000001",
"@ c #010101",
"# c #020202",
"$ c #020302",
"% c #030302",
"& c #020203",
"* c #020303",
"= c gray1",
"- c #050303",
"; c #030403",
": c #040404",
"> c #040504",
", c #050504",
"< c #040405",
"1 c gray2",
"2 c #060606",
"3 c #070606",
"4 c #060706",
"5 c #060707",
"6 c #070707",
"7 c #080807",
"8 c gray3",
"9 c #090808",
"0 c #080909",
"q c #090909",
"w c #0A0B0A",
"e c #090C0C",
"r c #0D0C0D",
"t c gray5",
"y c #0C0D0E",
"u c #0F0E0F",
"i c gray6",
"p c #121213",
"a c gray8",
"s c #151515",
"d c #191919",
/* pixels */
"       uu       ",
"      #q6#      ",
"     1#qy#1     ",
"    1##  ;##    ",
"    ## #; ;#1   ",
"       ##u      ",
"      q##;      ",
"     d-###s     ",
"     1####6     ",
"     11###1u    ",
"     u1##17     ",
"      q##1      ",
"      s#1p      ",
"       uy       ",
"                ",
"                "
};
